# Blender 3.6.4
# www.blender.org
mtllib ground.mtl
o 3D_Tile_Ground_01A.001
v 0.088173 0.013946 -0.104999
v 0.088173 0.113946 -0.004999
v -0.011827 0.113946 -0.104999
v 0.088173 0.043235 -0.034289
v 0.030438 0.056211 -0.047264
v 0.017462 0.113946 -0.034289
v 0.017462 0.043235 -0.104999
v 0.088173 0.013946 -1.904999
v -0.011827 0.113946 -1.904999
v 0.088173 0.113946 -2.004999
v 0.017462 0.043235 -1.904999
v 0.030438 0.056211 -1.962734
v 0.017462 0.113946 -1.975710
v 0.088173 0.043235 -1.975710
v 1.888173 0.013946 -0.104999
v 1.988173 0.113946 -0.104999
v 1.888173 0.113946 -0.004999
v 1.958883 0.043235 -0.104999
v 1.945908 0.056211 -0.047264
v 1.958883 0.113946 -0.034289
v 1.888173 0.043235 -0.034289
v 1.888173 0.013946 -1.904999
v 1.888173 0.113946 -2.004999
v 1.988173 0.113946 -1.904999
v 1.888173 0.043235 -1.975710
v 1.945908 0.056211 -1.962734
v 1.958883 0.113946 -1.975710
v 1.958883 0.043235 -1.904999
v 0.088173 0.913945 -0.004999
v 0.088173 1.013945 -0.104999
v -0.011827 0.913945 -0.104999
v 0.088172 0.984656 -0.034288
v 0.030437 0.971680 -0.047264
v 0.017462 0.984656 -0.104999
v 0.017462 0.913945 -0.034288
v -0.011827 0.913945 -1.904999
v 0.088173 1.013945 -1.904999
v 0.088173 0.913945 -2.004999
v 0.017462 0.984656 -1.904999
v 0.030437 0.971680 -1.962734
v 0.088172 0.984656 -1.975710
v 0.017462 0.913945 -1.975710
v 1.988173 0.913945 -0.104999
v 1.888173 1.013945 -0.104999
v 1.888173 0.913945 -0.004999
v 1.958883 0.984656 -0.104999
v 1.945908 0.971680 -0.047264
v 1.888173 0.984656 -0.034289
v 1.958883 0.913945 -0.034289
v 1.888173 0.913945 -2.004999
v 1.888173 1.013945 -1.904999
v 1.988173 0.913945 -1.904999
v 1.888173 0.984656 -1.975710
v 1.945908 0.971680 -1.962734
v 1.958883 0.984656 -1.904999
v 1.958883 0.913945 -1.975710
v 0.088173 0.463946 -0.004999
v 0.088173 0.463946 -0.004999
v 0.088173 0.513945 -0.004999
v 0.088173 0.513945 -0.004999
v -0.011827 0.463946 -1.904999
v -0.011827 0.463946 -1.904999
v -0.011827 0.513945 -1.904999
v -0.011827 0.513945 -1.904999
v 1.988173 0.463946 -0.104999
v 1.988173 0.463946 -0.104999
v 1.988173 0.513945 -0.104999
v 1.988173 0.513945 -0.104999
v 0.017462 0.463945 -1.975710
v 0.017462 0.463945 -1.975710
v 0.017462 0.513945 -1.975710
v 0.017462 0.513945 -1.975710
v -0.011827 0.463946 -0.104999
v -0.011827 0.463946 -0.104999
v -0.011827 0.513945 -0.104999
v -0.011827 0.513945 -0.104999
v 0.017462 0.463946 -0.034288
v 0.017462 0.463946 -0.034288
v 0.017462 0.513945 -0.034288
v 0.017462 0.513945 -0.034288
v 0.088173 0.463946 -2.004999
v 0.088173 0.463946 -2.004999
v 0.088173 0.513945 -2.004999
v 0.088173 0.513945 -2.004999
v 1.888173 0.463946 -2.004999
v 1.888173 0.463946 -2.004999
v 1.888173 0.513945 -2.004999
v 1.888173 0.513945 -2.004999
v 1.988173 0.463946 -1.904999
v 1.988173 0.463946 -1.904999
v 1.988173 0.513945 -1.904999
v 1.988173 0.513945 -1.904999
v 1.958883 0.463946 -1.975710
v 1.958883 0.463946 -1.975710
v 1.958883 0.463946 -1.975710
v 1.958883 0.463946 -1.975710
v 1.958883 0.513945 -1.975710
v 1.958883 0.513945 -1.975710
v 1.888173 0.463946 -0.004999
v 1.888173 0.463946 -0.004999
v 1.888173 0.513945 -0.004999
v 1.888173 0.513945 -0.004999
v 1.958883 0.463946 -0.034288
v 1.958883 0.463946 -0.034288
v 1.958883 0.513945 -0.034288
v 1.958883 0.513945 -0.034288
v 0.001173 0.488945 -1.893299
v 0.001173 0.488945 -0.116699
v 1.946264 0.488945 -1.963091
v 0.030081 0.488945 -1.963091
v 0.099873 0.488945 -1.991999
v 1.876472 0.488945 -1.991999
v 0.030081 0.488945 -0.046908
v 1.876472 0.488945 -0.017999
v 0.099873 0.488945 -0.017999
v 1.975173 0.488945 -0.116699
v 1.946264 0.488945 -0.046908
v 1.975173 0.488945 -1.893299
vn -0.9808 -0.0000 -0.1951
vn -0.9808 -0.0000 0.1951
vn -0.9673 0.1794 0.1794
vn -0.9673 0.1794 -0.1794
vn -0.1794 -0.9673 0.1794
vn -0.1726 -0.6965 0.6965
vn -0.5774 -0.5774 0.5774
vn -0.6965 -0.6965 0.1726
vn -0.1794 -0.1794 0.9673
vn -0.6965 -0.1726 0.6965
vn -0.9673 -0.1794 0.1794
vn -0.1794 -0.9673 -0.1794
vn -0.6965 -0.6965 -0.1726
vn -0.5774 -0.5774 -0.5774
vn -0.1726 -0.6965 -0.6965
vn -0.9673 -0.1794 -0.1794
vn -0.6965 -0.1726 -0.6965
vn -0.1794 -0.1794 -0.9673
vn 0.1794 -0.9673 0.1794
vn 0.6965 -0.6965 0.1726
vn 0.5774 -0.5774 0.5774
vn 0.1726 -0.6965 0.6965
vn 0.9673 -0.1794 0.1794
vn 0.6965 -0.1726 0.6965
vn 0.1794 -0.1794 0.9673
vn 0.1794 -0.9673 -0.1794
vn 0.1726 -0.6965 -0.6965
vn 0.5774 -0.5774 -0.5774
vn 0.6965 -0.6965 -0.1726
vn 0.1794 -0.1794 -0.9673
vn 0.6965 -0.1726 -0.6965
vn 0.9673 -0.1794 -0.1794
vn -0.1951 -0.0000 -0.9808
vn -0.7071 -0.0000 -0.7071
vn 0.1951 -0.0000 -0.9808
vn -0.1794 0.1794 -0.9673
vn 0.1794 0.1794 -0.9673
vn 0.7071 -0.0000 -0.7071
vn 0.6965 0.1726 -0.6965
vn 0.1550 -0.0000 -0.9879
vn -0.1550 -0.0000 -0.9879
vn -0.1945 -0.5227 -0.8301
vn 0.1945 -0.5226 -0.8301
vn -0.7071 -0.0000 0.7071
vn -0.1951 -0.0000 0.9808
vn -0.1794 0.1794 0.9673
vn -0.6965 0.1726 0.6965
vn 0.7071 -0.0000 0.7071
vn 0.9808 -0.0000 0.1951
vn 0.9673 0.1794 0.1794
vn 0.6965 0.1726 0.6965
vn 0.1951 -0.0000 0.9808
vn 0.1794 0.1794 0.9673
vn -0.6965 0.1726 -0.6965
vn 0.1794 0.9673 -0.1794
vn -0.1794 0.9673 -0.1794
vn -0.1794 0.9673 0.1794
vn 0.1794 0.9673 0.1794
vn 0.9808 -0.0000 -0.1951
vn 0.9673 0.1794 -0.1794
vn -0.1726 0.6965 0.6965
vn -0.5773 0.5773 0.5774
vn -0.6965 0.6965 0.1726
vn -0.6965 0.6965 -0.1726
vn -0.5774 0.5774 -0.5773
vn -0.1726 0.6965 -0.6965
vn 0.6965 0.6965 0.1726
vn 0.5774 0.5773 0.5774
vn 0.1726 0.6965 0.6965
vn 0.1726 0.6965 -0.6965
vn 0.5774 0.5774 -0.5773
vn 0.6965 0.6965 -0.1726
vn 0.5755 -0.5810 -0.5755
vn 0.8301 -0.5226 -0.1945
vn 0.9879 -0.0000 -0.1550
vn 0.9879 -0.0000 0.1550
vn 0.8301 -0.5226 0.1945
vn -0.5755 -0.5810 0.5755
vn -0.8301 -0.5227 0.1945
vn -0.9879 -0.0000 0.1550
vn 0.5755 -0.5810 0.5755
vn -0.9879 -0.0000 -0.1550
vn -0.8301 0.5226 -0.1945
vn -0.8301 0.5227 0.1945
vn 0.1945 -0.5226 0.8301
vn 0.1550 -0.0000 0.9879
vn -0.1945 0.5226 -0.8301
vn -0.5755 0.5810 -0.5755
vn 0.1945 0.5226 -0.8301
vn -0.1550 -0.0000 0.9879
vn -0.5755 0.5810 0.5755
vn -0.1945 0.5226 0.8301
vn -0.8301 -0.5226 -0.1945
vn -0.5755 -0.5810 -0.5755
vn 0.5755 0.5810 0.5755
vn 0.1945 0.5226 0.8301
vn -0.1945 -0.5226 0.8301
vn 0.5755 0.5810 -0.5755
vn 0.8301 0.5226 -0.1945
vn 0.8301 0.5226 0.1945
vt 0.188133 0.073387
vt 0.183017 0.089532
vt 0.061331 0.158404
vt 0.070481 0.166116
vt 0.070650 0.166259
vt 0.070650 0.166259
vt 0.070820 0.166402
vt 0.182114 0.092381
vt 0.182378 0.091546
vt 0.182495 0.091177
vt 0.070481 0.166116
vt 0.070481 0.166116
vt 0.070650 0.166259
vt 0.070820 0.166402
s 1
usemtl Material.014
f 63/1/1 75/1/2 31/2/3
f 63/1/1 31/2/3 36/2/4
f 1/3/5 4/3/6 5/3/7
f 1/3/5 5/3/7 7/3/8
f 2/3/9 6/3/10 5/3/7
f 2/3/9 5/3/7 4/3/6
f 3/3/11 7/3/8 5/3/7
f 3/3/11 5/3/7 6/3/10
f 8/3/12 11/3/13 12/3/14
f 8/3/12 12/3/14 14/3/15
f 9/3/16 13/3/17 12/3/14
f 9/3/16 12/3/14 11/3/13
f 10/3/18 14/3/15 12/3/14
f 10/3/18 12/3/14 13/3/17
f 15/3/19 18/3/20 19/3/21
f 15/3/19 19/3/21 21/3/22
f 16/3/23 20/3/24 19/3/21
f 16/3/23 19/3/21 18/3/20
f 17/3/25 21/3/22 19/3/21
f 17/3/25 19/3/21 20/3/24
f 22/3/26 25/3/27 26/3/28
f 22/3/26 26/3/28 28/3/29
f 23/3/30 27/3/31 26/3/28
f 23/3/30 26/3/28 25/3/27
f 24/3/32 28/3/29 26/3/28
f 24/3/32 26/3/28 27/3/31
f 8/3/12 1/3/5 7/3/8
f 8/3/12 7/3/8 11/3/13
f 11/3/13 7/3/8 3/3/11
f 11/3/13 3/3/11 9/3/16
f 22/3/26 8/3/12 14/3/15
f 22/3/26 14/3/15 25/3/27
f 25/3/27 14/3/15 10/3/18
f 25/3/27 10/3/18 23/3/30
f 15/3/19 22/3/26 28/3/29
f 15/3/19 28/3/29 18/3/20
f 18/3/20 28/3/29 24/3/32
f 18/3/20 24/3/32 16/3/23
f 1/3/5 15/3/19 21/3/22
f 1/3/5 21/3/22 4/3/6
f 4/3/6 21/3/22 17/3/25
f 4/3/6 17/3/25 2/3/9
f 8/3/12 22/3/26 15/3/19
f 8/3/12 15/3/19 1/3/5
f 81/4/33 10/3/18 13/3/17
f 81/4/33 13/3/17 69/4/34
f 88/1/35 83/1/33 38/2/36
f 88/1/35 38/2/36 50/2/37
f 98/1/38 88/1/35 50/2/37
f 98/1/38 50/2/37 56/2/39
f 112/5/40 111/6/41 84/7/42
f 112/5/40 84/7/42 87/7/43
f 79/1/44 59/1/45 29/2/46
f 79/1/44 29/2/46 35/2/47
f 106/1/48 68/1/49 43/2/50
f 106/1/48 43/2/50 49/2/51
f 59/1/45 102/1/52 45/2/53
f 59/1/45 45/2/53 29/2/46
f 102/1/52 106/1/48 49/2/51
f 102/1/52 49/2/51 45/2/53
f 83/1/33 71/1/34 42/2/54
f 83/1/33 42/2/54 38/2/36
f 69/4/34 13/3/17 9/3/16
f 69/4/34 9/3/16 61/4/1
f 51/8/55 37/8/56 30/8/57
f 51/8/55 30/8/57 44/8/58
f 68/1/49 92/1/59 52/2/60
f 68/1/49 52/2/60 43/2/50
f 75/1/2 79/1/44 35/2/47
f 75/1/2 35/2/47 31/2/3
f 10/3/18 81/4/33 86/4/35
f 10/3/18 86/4/35 23/3/30
f 29/2/46 32/9/61 33/10/62
f 29/2/46 33/10/62 35/2/47
f 30/8/57 34/9/63 33/10/62
f 30/8/57 33/10/62 32/9/61
f 31/2/3 35/2/47 33/10/62
f 31/2/3 33/10/62 34/9/63
f 36/2/4 39/9/64 40/10/65
f 36/2/4 40/10/65 42/2/54
f 37/8/56 41/9/66 40/10/65
f 37/8/56 40/10/65 39/9/64
f 38/2/36 42/2/54 40/10/65
f 38/2/36 40/10/65 41/9/66
f 43/2/50 46/9/67 47/10/68
f 43/2/50 47/10/68 49/2/51
f 44/8/58 48/9/69 47/10/68
f 44/8/58 47/10/68 46/9/67
f 45/2/53 49/2/51 47/10/68
f 45/2/53 47/10/68 48/9/69
f 50/2/37 53/9/70 54/10/71
f 50/2/37 54/10/71 56/2/39
f 51/8/55 55/9/72 54/10/71
f 51/8/55 54/10/71 53/9/70
f 52/2/60 56/2/39 54/10/71
f 52/2/60 54/10/71 55/9/72
f 100/4/52 57/4/45 2/3/9
f 100/4/52 2/3/9 17/3/25
f 6/3/10 77/4/44 73/4/2
f 6/3/10 73/4/2 3/3/11
f 30/8/57 37/8/56 39/9/64
f 30/8/57 39/9/64 34/9/63
f 34/9/63 39/9/64 36/2/4
f 34/9/63 36/2/4 31/2/3
f 37/8/56 51/8/55 53/9/70
f 37/8/56 53/9/70 41/9/66
f 41/9/66 53/9/70 50/2/37
f 41/9/66 50/2/37 38/2/36
f 51/8/55 44/8/58 46/9/67
f 51/8/55 46/9/67 55/9/72
f 55/9/72 46/9/67 43/2/50
f 55/9/72 43/2/50 52/2/60
f 44/8/58 30/8/57 32/9/61
f 44/8/58 32/9/61 48/9/69
f 48/9/69 32/9/61 29/2/46
f 48/9/69 29/2/46 45/2/53
f 92/1/59 98/1/38 56/2/39
f 92/1/59 56/2/39 52/2/60
f 104/4/48 20/3/24 16/3/23
f 104/4/48 16/3/23 66/4/49
f 90/4/59 24/3/32 27/3/31
f 90/4/59 27/3/31 96/11/38
f 95/12/38 27/3/31 23/3/30
f 95/12/38 23/3/30 86/4/35
f 100/4/52 17/3/25 20/3/24
f 100/4/52 20/3/24 104/4/48
f 90/4/59 66/4/49 16/3/23
f 90/4/59 16/3/23 24/3/32
f 3/3/11 73/4/2 61/4/1
f 3/3/11 61/4/1 9/3/16
f 109/13/38 97/14/73 91/7/74
f 109/13/38 91/7/74 118/5/75
f 116/5/76 118/5/75 91/7/74
f 116/5/76 91/7/74 67/7/77
f 87/7/43 97/14/73 109/13/38
f 87/7/43 109/13/38 112/5/40
f 113/5/44 80/7/78 76/7/79
f 113/5/44 76/7/79 108/5/80
f 116/5/76 67/7/77 105/7/81
f 116/5/76 105/7/81 117/5/48
f 108/5/80 107/5/82 62/4/83
f 108/5/80 62/4/83 74/4/84
f 117/5/48 105/7/81 101/7/85
f 117/5/48 101/7/85 114/5/86
f 110/13/34 111/6/41 82/4/87
f 110/13/34 82/4/87 70/4/88
f 85/4/89 82/4/87 111/6/41
f 85/4/89 111/6/41 112/5/40
f 115/5/90 113/5/44 78/4/91
f 115/5/90 78/4/91 58/4/92
f 76/7/79 64/7/93 107/5/82
f 76/7/79 107/5/82 108/5/80
f 2/3/9 57/4/45 77/4/44
f 2/3/9 77/4/44 6/3/10
f 107/5/82 64/7/93 72/7/94
f 107/5/82 72/7/94 110/13/34
f 103/4/95 117/5/48 114/5/86
f 103/4/95 114/5/86 99/4/96
f 114/5/86 101/7/85 60/7/97
f 114/5/86 60/7/97 115/5/90
f 94/11/98 109/13/38 118/5/75
f 94/11/98 118/5/75 89/4/99
f 72/7/94 84/7/42 111/6/41
f 72/7/94 111/6/41 110/13/34
f 78/4/91 113/5/44 108/5/80
f 78/4/91 108/5/80 74/4/84
f 62/4/83 107/5/82 110/13/34
f 62/4/83 110/13/34 70/4/88
f 60/7/97 80/7/78 113/5/44
f 60/7/97 113/5/44 115/5/90
f 65/4/100 89/4/99 118/5/75
f 65/4/100 118/5/75 116/5/76
f 65/4/100 116/5/76 117/5/48
f 65/4/100 117/5/48 103/4/95
f 71/1/34 63/1/1 36/2/4
f 71/1/34 36/2/4 42/2/54
f 99/4/96 114/5/86 115/5/90
f 99/4/96 115/5/90 58/4/92
f 112/5/40 109/13/38 93/12/98
f 112/5/40 93/12/98 85/4/89
